<?xml version="1.0" encoding="UTF-8"?>
<svg id="Capa_2" data-name="Capa 2" xmlns="http://www.w3.org/2000/svg" xmlns:xlink="http://www.w3.org/1999/xlink" viewBox="0 0 851.13 595.28">
  <defs>
    <style>
      .cls-1 {
        fill: #bfafd3;
      }

      .cls-2 {
        fill: url(#Motivo_nuevo);
      }

      .cls-3 {
        fill: none;
      }
    </style>
    <pattern id="Motivo_nuevo" data-name="Motivo nuevo" x="0" y="0" width="333.1" height="334.86" patternTransform="translate(1379.22 -255.96)" patternUnits="userSpaceOnUse" viewBox="0 0 333.1 334.86">
      <g>
        <rect class="cls-3" x="0" width="333.1" height="334.86"/>
        <path class="cls-1" d="M314.69,301.52l-1.65-2c-.16-.19-.4-.29-.64-.27l-2.58,.22c-.62,.05-1.03-.62-.7-1.15l1.39-2.18c.13-.21,.15-.47,.06-.69l-1.01-2.38c-.24-.57,.28-1.17,.88-1.02l2.5,.65c.24,.06,.49,0,.68-.16l1.95-1.7c.47-.41,1.2-.1,1.24,.52l.16,2.58c.02,.25,.15,.47,.36,.6l2.22,1.33c.53,.32,.47,1.11-.11,1.34l-2.41,.95c-.23,.09-.4,.29-.45,.53l-.58,2.52c-.14,.6-.91,.79-1.31,.31Z"/>
        <g>
          <path class="cls-1" d="M288.55,285.97l-3.85-.45c-.37-.04-.73,.1-.97,.38l-2.55,2.92c-.61,.7-1.76,.39-1.94-.52l-.76-3.8c-.07-.36-.32-.67-.66-.81l-3.56-1.53c-.85-.37-.92-1.55-.11-2.01l3.38-1.9c.32-.18,.53-.51,.57-.88l.35-3.86c.08-.93,1.19-1.35,1.88-.72l2.85,2.63c.27,.25,.65,.35,1.01,.27l3.78-.86c.91-.21,1.66,.72,1.27,1.56l-1.62,3.52c-.15,.34-.13,.73,.06,1.04l1.99,3.33c.48,.8-.17,1.8-1.09,1.69Z"/>
          <path class="cls-1" d="M287.62,329.99l-2.02-1.62c-.19-.15-.45-.2-.68-.13l-2.48,.74c-.59,.18-1.13-.4-.91-.98l.92-2.42c.09-.23,.06-.49-.08-.69l-1.47-2.13c-.35-.51,.03-1.2,.65-1.17l2.58,.13c.25,.01,.48-.1,.63-.29l1.57-2.06c.38-.49,1.15-.34,1.32,.26l.68,2.5c.06,.24,.24,.43,.47,.51l2.44,.86c.59,.21,.68,.99,.16,1.33l-2.16,1.42c-.21,.13-.33,.36-.34,.61l-.06,2.59c-.01,.62-.73,.95-1.22,.57Z"/>
          <path class="cls-1" d="M248.07,301.52l-1.65-2c-.16-.19-.4-.29-.64-.27l-2.58,.22c-.62,.05-1.03-.62-.7-1.15l1.39-2.18c.13-.21,.15-.47,.06-.69l-1.01-2.38c-.24-.57,.28-1.17,.88-1.02l2.5,.65c.24,.06,.49,0,.68-.16l1.95-1.7c.47-.41,1.2-.1,1.24,.52l.16,2.58c.02,.25,.15,.47,.36,.6l2.22,1.33c.53,.32,.47,1.11-.11,1.34l-2.41,.95c-.23,.09-.4,.29-.45,.53l-.58,2.52c-.14,.6-.91,.79-1.31,.31Z"/>
        </g>
        <g>
          <path class="cls-1" d="M221.92,285.97l-3.85-.45c-.37-.04-.73,.1-.97,.38l-2.55,2.92c-.61,.7-1.76,.39-1.94-.52l-.76-3.8c-.07-.36-.32-.67-.66-.81l-3.56-1.53c-.85-.37-.92-1.55-.11-2.01l3.38-1.9c.32-.18,.53-.51,.57-.88l.35-3.86c.08-.93,1.19-1.35,1.88-.72l2.85,2.63c.27,.25,.65,.35,1.01,.27l3.78-.86c.91-.21,1.66,.72,1.27,1.56l-1.62,3.52c-.15,.34-.13,.73,.06,1.04l1.99,3.33c.48,.8-.17,1.8-1.09,1.69Z"/>
          <path class="cls-1" d="M221,329.99l-2.02-1.62c-.19-.15-.45-.2-.68-.13l-2.48,.74c-.59,.18-1.13-.4-.91-.98l.92-2.42c.09-.23,.06-.49-.08-.69l-1.47-2.13c-.35-.51,.03-1.2,.65-1.17l2.58,.13c.25,.01,.48-.1,.63-.29l1.57-2.06c.38-.49,1.15-.34,1.32,.26l.68,2.5c.06,.24,.24,.43,.47,.51l2.44,.86c.59,.21,.68,.99,.16,1.33l-2.16,1.42c-.21,.13-.33,.36-.34,.61l-.06,2.59c-.01,.62-.73,.95-1.22,.57Z"/>
          <path class="cls-1" d="M181.45,301.52l-1.65-2c-.16-.19-.4-.29-.64-.27l-2.58,.22c-.62,.05-1.03-.62-.7-1.15l1.39-2.18c.13-.21,.15-.47,.06-.69l-1.01-2.38c-.24-.57,.28-1.17,.88-1.02l2.5,.65c.24,.06,.49,0,.68-.16l1.95-1.7c.47-.41,1.2-.1,1.24,.52l.16,2.58c.02,.25,.15,.47,.36,.6l2.22,1.33c.53,.32,.47,1.11-.11,1.34l-2.41,.95c-.23,.09-.4,.29-.45,.53l-.58,2.52c-.14,.6-.91,.79-1.31,.31Z"/>
        </g>
        <g>
          <path class="cls-1" d="M155.3,285.97l-3.85-.45c-.37-.04-.73,.1-.97,.38l-2.55,2.92c-.61,.7-1.76,.39-1.94-.52l-.76-3.8c-.07-.36-.32-.67-.66-.81l-3.56-1.53c-.85-.37-.92-1.55-.11-2.01l3.38-1.9c.32-.18,.53-.51,.57-.88l.35-3.86c.08-.93,1.19-1.35,1.88-.72l2.85,2.63c.27,.25,.65,.35,1.01,.27l3.78-.86c.91-.21,1.66,.72,1.27,1.56l-1.62,3.52c-.15,.34-.13,.73,.06,1.04l1.99,3.33c.48,.8-.17,1.8-1.09,1.69Z"/>
          <path class="cls-1" d="M154.38,329.99l-2.02-1.62c-.19-.15-.45-.2-.68-.13l-2.48,.74c-.59,.18-1.13-.4-.91-.98l.92-2.42c.09-.23,.06-.49-.08-.69l-1.47-2.13c-.35-.51,.03-1.2,.65-1.17l2.58,.13c.25,.01,.48-.1,.63-.29l1.57-2.06c.38-.49,1.15-.34,1.32,.26l.68,2.5c.06,.24,.24,.43,.47,.51l2.44,.86c.59,.21,.68,.99,.16,1.33l-2.16,1.42c-.21,.13-.33,.36-.34,.61l-.06,2.59c-.01,.62-.73,.95-1.22,.57Z"/>
          <path class="cls-1" d="M114.83,301.52l-1.65-2c-.16-.19-.4-.29-.64-.27l-2.58,.22c-.62,.05-1.03-.62-.7-1.15l1.39-2.18c.13-.21,.15-.47,.06-.69l-1.01-2.38c-.24-.57,.28-1.17,.88-1.02l2.5,.65c.24,.06,.49,0,.68-.16l1.95-1.7c.47-.41,1.2-.1,1.24,.52l.16,2.58c.02,.25,.15,.47,.36,.6l2.22,1.33c.53,.32,.47,1.11-.11,1.34l-2.41,.95c-.23,.09-.4,.29-.45,.53l-.58,2.52c-.14,.6-.91,.79-1.31,.31Z"/>
        </g>
        <g>
          <path class="cls-1" d="M88.68,285.97l-3.85-.45c-.37-.04-.73,.1-.97,.38l-2.55,2.92c-.61,.7-1.76,.39-1.94-.52l-.76-3.8c-.07-.36-.32-.67-.66-.81l-3.56-1.53c-.85-.37-.92-1.55-.11-2.01l3.38-1.9c.32-.18,.53-.51,.57-.88l.35-3.86c.08-.93,1.19-1.35,1.88-.72l2.85,2.63c.27,.25,.65,.35,1.01,.27l3.78-.86c.91-.21,1.66,.72,1.27,1.56l-1.62,3.52c-.15,.34-.13,.73,.06,1.04l1.99,3.33c.48,.8-.17,1.8-1.09,1.69Z"/>
          <path class="cls-1" d="M87.76,329.99l-2.02-1.62c-.19-.15-.45-.2-.68-.13l-2.48,.74c-.59,.18-1.13-.4-.91-.98l.92-2.42c.09-.23,.06-.49-.08-.69l-1.47-2.13c-.35-.51,.03-1.2,.65-1.17l2.58,.13c.25,.01,.48-.1,.63-.29l1.57-2.06c.38-.49,1.15-.34,1.32,.26l.68,2.5c.06,.24,.24,.43,.47,.51l2.44,.86c.59,.21,.68,.99,.16,1.33l-2.16,1.42c-.21,.13-.33,.36-.34,.61l-.06,2.59c-.01,.62-.73,.95-1.22,.57Z"/>
          <path class="cls-1" d="M48.21,301.52l-1.65-2c-.16-.19-.4-.29-.64-.27l-2.58,.22c-.62,.05-1.03-.62-.7-1.15l1.39-2.18c.13-.21,.15-.47,.06-.69l-1.01-2.38c-.24-.57,.28-1.17,.88-1.02l2.5,.65c.24,.06,.49,0,.68-.16l1.95-1.7c.47-.41,1.2-.1,1.24,.52l.16,2.58c.02,.25,.15,.47,.36,.6l2.22,1.33c.53,.32,.47,1.11-.11,1.34l-2.41,.95c-.23,.09-.4,.29-.45,.53l-.58,2.52c-.14,.6-.91,.79-1.31,.31Z"/>
        </g>
        <g>
          <path class="cls-1" d="M22.06,285.97l-3.85-.45c-.37-.04-.73,.1-.97,.38l-2.55,2.92c-.61,.7-1.76,.39-1.94-.52l-.76-3.8c-.07-.36-.32-.67-.66-.81l-3.56-1.53c-.85-.37-.92-1.55-.11-2.01l3.38-1.9c.32-.18,.53-.51,.57-.88l.35-3.86c.08-.93,1.19-1.35,1.88-.72l2.85,2.63c.27,.25,.65,.35,1.01,.27l3.78-.86c.91-.21,1.66,.72,1.27,1.56l-1.62,3.52c-.15,.34-.13,.73,.06,1.04l1.99,3.33c.48,.8-.17,1.8-1.09,1.69Z"/>
          <path class="cls-1" d="M21.14,329.99l-2.02-1.62c-.19-.15-.45-.2-.68-.13l-2.48,.74c-.59,.18-1.13-.4-.91-.98l.92-2.42c.09-.23,.06-.49-.08-.69l-1.47-2.13c-.35-.51,.03-1.2,.65-1.17l2.58,.13c.25,.01,.48-.1,.63-.29l1.57-2.06c.38-.49,1.15-.34,1.32,.26l.68,2.5c.06,.24,.24,.43,.47,.51l2.44,.86c.59,.21,.68,.99,.16,1.33l-2.16,1.42c-.21,.13-.33,.36-.34,.61l-.06,2.59c-.01,.62-.73,.95-1.22,.57Z"/>
        </g>
        <path class="cls-1" d="M328.02,234.54l-1.65-2c-.16-.19-.4-.29-.64-.27l-2.58,.22c-.62,.05-1.03-.62-.7-1.15l1.39-2.18c.13-.21,.15-.47,.06-.69l-1.01-2.38c-.24-.57,.28-1.17,.88-1.02l2.5,.65c.24,.06,.49,0,.68-.16l1.95-1.7c.47-.41,1.2-.1,1.24,.52l.16,2.58c.02,.25,.15,.47,.36,.6l2.22,1.33c.53,.32,.47,1.11-.11,1.34l-2.41,.95c-.23,.09-.4,.29-.45,.53l-.58,2.52c-.14,.6-.91,.79-1.31,.31Z"/>
        <g>
          <path class="cls-1" d="M301.87,219l-3.85-.45c-.37-.04-.73,.1-.97,.38l-2.55,2.92c-.61,.7-1.76,.39-1.94-.52l-.76-3.8c-.07-.36-.32-.67-.66-.81l-3.56-1.53c-.85-.37-.92-1.55-.11-2.01l3.38-1.9c.32-.18,.53-.51,.57-.88l.35-3.86c.08-.93,1.19-1.35,1.88-.72l2.85,2.63c.27,.25,.65,.35,1.01,.27l3.78-.86c.91-.21,1.66,.72,1.27,1.56l-1.62,3.52c-.15,.34-.13,.73,.06,1.04l1.99,3.33c.48,.8-.17,1.8-1.09,1.69Z"/>
          <path class="cls-1" d="M300.94,263.02l-2.02-1.62c-.19-.15-.45-.2-.68-.13l-2.48,.74c-.59,.18-1.13-.4-.91-.98l.92-2.42c.09-.23,.06-.49-.08-.69l-1.47-2.13c-.35-.51,.03-1.2,.65-1.17l2.58,.13c.25,.01,.48-.1,.63-.29l1.57-2.06c.38-.49,1.15-.34,1.32,.26l.68,2.5c.06,.24,.24,.43,.47,.51l2.44,.86c.59,.21,.68,.99,.16,1.33l-2.16,1.42c-.21,.13-.33,.36-.34,.61l-.06,2.59c-.01,.62-.73,.95-1.22,.57Z"/>
          <path class="cls-1" d="M261.4,234.54l-1.65-2c-.16-.19-.4-.29-.64-.27l-2.58,.22c-.62,.05-1.03-.62-.7-1.15l1.39-2.18c.13-.21,.15-.47,.06-.69l-1.01-2.38c-.24-.57,.28-1.17,.88-1.02l2.5,.65c.24,.06,.49,0,.68-.16l1.95-1.7c.47-.41,1.2-.1,1.24,.52l.16,2.58c.02,.25,.15,.47,.36,.6l2.22,1.33c.53,.32,.47,1.11-.11,1.34l-2.41,.95c-.23,.09-.4,.29-.45,.53l-.58,2.52c-.14,.6-.91,.79-1.31,.31Z"/>
        </g>
        <g>
          <path class="cls-1" d="M235.25,219l-3.85-.45c-.37-.04-.73,.1-.97,.38l-2.55,2.92c-.61,.7-1.76,.39-1.94-.52l-.76-3.8c-.07-.36-.32-.67-.66-.81l-3.56-1.53c-.85-.37-.92-1.55-.11-2.01l3.38-1.9c.32-.18,.53-.51,.57-.88l.35-3.86c.08-.93,1.19-1.35,1.88-.72l2.85,2.63c.27,.25,.65,.35,1.01,.27l3.78-.86c.91-.21,1.66,.72,1.27,1.56l-1.62,3.52c-.15,.34-.13,.73,.06,1.04l1.99,3.33c.48,.8-.17,1.8-1.09,1.69Z"/>
          <path class="cls-1" d="M234.32,263.02l-2.02-1.62c-.19-.15-.45-.2-.68-.13l-2.48,.74c-.59,.18-1.13-.4-.91-.98l.92-2.42c.09-.23,.06-.49-.08-.69l-1.47-2.13c-.35-.51,.03-1.2,.65-1.17l2.58,.13c.25,.01,.48-.1,.63-.29l1.57-2.06c.38-.49,1.15-.34,1.32,.26l.68,2.5c.06,.24,.24,.43,.47,.51l2.44,.86c.59,.21,.68,.99,.16,1.33l-2.16,1.42c-.21,.13-.33,.36-.34,.61l-.06,2.59c-.01,.62-.73,.95-1.22,.57Z"/>
          <path class="cls-1" d="M194.78,234.54l-1.65-2c-.16-.19-.4-.29-.64-.27l-2.58,.22c-.62,.05-1.03-.62-.7-1.15l1.39-2.18c.13-.21,.15-.47,.06-.69l-1.01-2.38c-.24-.57,.28-1.17,.88-1.02l2.5,.65c.24,.06,.49,0,.68-.16l1.95-1.7c.47-.41,1.2-.1,1.24,.52l.16,2.58c.02,.25,.15,.47,.36,.6l2.22,1.33c.53,.32,.47,1.11-.11,1.34l-2.41,.95c-.23,.09-.4,.29-.45,.53l-.58,2.52c-.14,.6-.91,.79-1.31,.31Z"/>
        </g>
        <g>
          <path class="cls-1" d="M168.63,219l-3.85-.45c-.37-.04-.73,.1-.97,.38l-2.55,2.92c-.61,.7-1.76,.39-1.94-.52l-.76-3.8c-.07-.36-.32-.67-.66-.81l-3.56-1.53c-.85-.37-.92-1.55-.11-2.01l3.38-1.9c.32-.18,.53-.51,.57-.88l.35-3.86c.08-.93,1.19-1.35,1.88-.72l2.85,2.63c.27,.25,.65,.35,1.01,.27l3.78-.86c.91-.21,1.66,.72,1.27,1.56l-1.62,3.52c-.15,.34-.13,.73,.06,1.04l1.99,3.33c.48,.8-.17,1.8-1.09,1.69Z"/>
          <path class="cls-1" d="M167.7,263.02l-2.02-1.62c-.19-.15-.45-.2-.68-.13l-2.48,.74c-.59,.18-1.13-.4-.91-.98l.92-2.42c.09-.23,.06-.49-.08-.69l-1.47-2.13c-.35-.51,.03-1.2,.65-1.17l2.58,.13c.25,.01,.48-.1,.63-.29l1.57-2.06c.38-.49,1.15-.34,1.32,.26l.68,2.5c.06,.24,.24,.43,.47,.51l2.44,.86c.59,.21,.68,.99,.16,1.33l-2.16,1.42c-.21,.13-.33,.36-.34,.61l-.06,2.59c-.01,.62-.73,.95-1.22,.57Z"/>
          <path class="cls-1" d="M128.16,234.54l-1.65-2c-.16-.19-.4-.29-.64-.27l-2.58,.22c-.62,.05-1.03-.62-.7-1.15l1.39-2.18c.13-.21,.15-.47,.06-.69l-1.01-2.38c-.24-.57,.28-1.17,.88-1.02l2.5,.65c.24,.06,.49,0,.68-.16l1.95-1.7c.47-.41,1.2-.1,1.24,.52l.16,2.58c.02,.25,.15,.47,.36,.6l2.22,1.33c.53,.32,.47,1.11-.11,1.34l-2.41,.95c-.23,.09-.4,.29-.45,.53l-.58,2.52c-.14,.6-.91,.79-1.31,.31Z"/>
        </g>
        <g>
          <path class="cls-1" d="M102.01,219l-3.85-.45c-.37-.04-.73,.1-.97,.38l-2.55,2.92c-.61,.7-1.76,.39-1.94-.52l-.76-3.8c-.07-.36-.32-.67-.66-.81l-3.56-1.53c-.85-.37-.92-1.55-.11-2.01l3.38-1.9c.32-.18,.53-.51,.57-.88l.35-3.86c.08-.93,1.19-1.35,1.88-.72l2.85,2.63c.27,.25,.65,.35,1.01,.27l3.78-.86c.91-.21,1.66,.72,1.27,1.56l-1.62,3.52c-.15,.34-.13,.73,.06,1.04l1.99,3.33c.48,.8-.17,1.8-1.09,1.69Z"/>
          <path class="cls-1" d="M101.08,263.02l-2.02-1.62c-.19-.15-.45-.2-.68-.13l-2.48,.74c-.59,.18-1.13-.4-.91-.98l.92-2.42c.09-.23,.06-.49-.08-.69l-1.47-2.13c-.35-.51,.03-1.2,.65-1.17l2.58,.13c.25,.01,.48-.1,.63-.29l1.57-2.06c.38-.49,1.15-.34,1.32,.26l.68,2.5c.06,.24,.24,.43,.47,.51l2.44,.86c.59,.21,.68,.99,.16,1.33l-2.16,1.42c-.21,.13-.33,.36-.34,.61l-.06,2.59c-.01,.62-.73,.95-1.22,.57Z"/>
          <path class="cls-1" d="M61.54,234.54l-1.65-2c-.16-.19-.4-.29-.64-.27l-2.58,.22c-.62,.05-1.03-.62-.7-1.15l1.39-2.18c.13-.21,.15-.47,.06-.69l-1.01-2.38c-.24-.57,.28-1.17,.88-1.02l2.5,.65c.24,.06,.49,0,.68-.16l1.95-1.7c.47-.41,1.2-.1,1.24,.52l.16,2.58c.02,.25,.15,.47,.36,.6l2.22,1.33c.53,.32,.47,1.11-.11,1.34l-2.41,.95c-.23,.09-.4,.29-.45,.53l-.58,2.52c-.14,.6-.91,.79-1.31,.31Z"/>
        </g>
        <g>
          <path class="cls-1" d="M35.39,219l-3.85-.45c-.37-.04-.73,.1-.97,.38l-2.55,2.92c-.61,.7-1.76,.39-1.94-.52l-.76-3.8c-.07-.36-.32-.67-.66-.81l-3.56-1.53c-.85-.37-.92-1.55-.11-2.01l3.38-1.9c.32-.18,.53-.51,.57-.88l.35-3.86c.08-.93,1.19-1.35,1.88-.72l2.85,2.63c.27,.25,.65,.35,1.01,.27l3.78-.86c.91-.21,1.66,.72,1.27,1.56l-1.62,3.52c-.15,.34-.13,.73,.06,1.04l1.99,3.33c.48,.8-.17,1.8-1.09,1.69Z"/>
          <path class="cls-1" d="M34.46,263.02l-2.02-1.62c-.19-.15-.45-.2-.68-.13l-2.48,.74c-.59,.18-1.13-.4-.91-.98l.92-2.42c.09-.23,.06-.49-.08-.69l-1.47-2.13c-.35-.51,.03-1.2,.65-1.17l2.58,.13c.25,.01,.48-.1,.63-.29l1.57-2.06c.38-.49,1.15-.34,1.32,.26l.68,2.5c.06,.24,.24,.43,.47,.51l2.44,.86c.59,.21,.68,.99,.16,1.33l-2.16,1.42c-.21,.13-.33,.36-.34,.61l-.06,2.59c-.01,.62-.73,.95-1.22,.57Z"/>
          <path class="cls-1" d="M-5.08,234.54l-1.65-2c-.16-.19-.4-.29-.64-.27l-2.58,.22c-.62,.05-1.03-.62-.7-1.15l1.39-2.18c.13-.21,.15-.47,.06-.69l-1.01-2.38c-.24-.57,.28-1.17,.88-1.02l2.5,.65c.24,.06,.49,0,.68-.16l1.95-1.7c.47-.41,1.2-.1,1.24,.52l.16,2.58c.02,.25,.15,.47,.36,.6l2.22,1.33c.53,.32,.47,1.11-.11,1.34l-2.41,.95c-.23,.09-.4,.29-.45,.53l-.58,2.52c-.14,.6-.91,.79-1.31,.31Z"/>
        </g>
        <g>
          <path class="cls-1" d="M315.19,152.03l-3.85-.45c-.37-.04-.73,.1-.97,.38l-2.55,2.92c-.61,.7-1.76,.39-1.94-.52l-.76-3.8c-.07-.36-.32-.67-.66-.81l-3.56-1.53c-.85-.37-.92-1.55-.11-2.01l3.38-1.9c.32-.18,.53-.51,.57-.88l.35-3.86c.08-.93,1.19-1.35,1.88-.72l2.85,2.63c.27,.25,.65,.35,1.01,.27l3.78-.86c.91-.21,1.66,.72,1.27,1.56l-1.62,3.52c-.15,.34-.13,.73,.06,1.04l1.99,3.33c.48,.8-.17,1.8-1.09,1.69Z"/>
          <path class="cls-1" d="M314.27,196.05l-2.02-1.62c-.19-.15-.45-.2-.68-.13l-2.48,.74c-.59,.18-1.13-.4-.91-.98l.92-2.42c.09-.23,.06-.49-.08-.69l-1.47-2.13c-.35-.51,.03-1.2,.65-1.17l2.58,.13c.25,.01,.48-.1,.63-.29l1.57-2.06c.38-.49,1.15-.34,1.32,.26l.68,2.5c.06,.24,.24,.43,.47,.51l2.44,.86c.59,.21,.68,.99,.16,1.33l-2.16,1.42c-.21,.13-.33,.36-.34,.61l-.06,2.59c-.01,.62-.73,.95-1.22,.57Z"/>
          <path class="cls-1" d="M274.72,167.57l-1.65-2c-.16-.19-.4-.29-.64-.27l-2.58,.22c-.62,.05-1.03-.62-.7-1.15l1.39-2.18c.13-.21,.15-.47,.06-.69l-1.01-2.38c-.24-.57,.28-1.17,.88-1.02l2.5,.65c.24,.06,.49,0,.68-.16l1.95-1.7c.47-.41,1.2-.1,1.24,.52l.16,2.58c.02,.25,.15,.47,.36,.6l2.22,1.33c.53,.32,.47,1.11-.11,1.34l-2.41,.95c-.23,.09-.4,.29-.45,.53l-.58,2.52c-.14,.6-.91,.79-1.31,.31Z"/>
        </g>
        <g>
          <path class="cls-1" d="M248.57,152.03l-3.85-.45c-.37-.04-.73,.1-.97,.38l-2.55,2.92c-.61,.7-1.76,.39-1.94-.52l-.76-3.8c-.07-.36-.32-.67-.66-.81l-3.56-1.53c-.85-.37-.92-1.55-.11-2.01l3.38-1.9c.32-.18,.53-.51,.57-.88l.35-3.86c.08-.93,1.19-1.35,1.88-.72l2.85,2.63c.27,.25,.65,.35,1.01,.27l3.78-.86c.91-.21,1.66,.72,1.27,1.56l-1.62,3.52c-.15,.34-.13,.73,.06,1.04l1.99,3.33c.48,.8-.17,1.8-1.09,1.69Z"/>
          <path class="cls-1" d="M247.65,196.05l-2.02-1.62c-.19-.15-.45-.2-.68-.13l-2.48,.74c-.59,.18-1.13-.4-.91-.98l.92-2.42c.09-.23,.06-.49-.08-.69l-1.47-2.13c-.35-.51,.03-1.2,.65-1.17l2.58,.13c.25,.01,.48-.1,.63-.29l1.57-2.06c.38-.49,1.15-.34,1.32,.26l.68,2.5c.06,.24,.24,.43,.47,.51l2.44,.86c.59,.21,.68,.99,.16,1.33l-2.16,1.42c-.21,.13-.33,.36-.34,.61l-.06,2.59c-.01,.62-.73,.95-1.22,.57Z"/>
          <path class="cls-1" d="M208.1,167.57l-1.65-2c-.16-.19-.4-.29-.64-.27l-2.58,.22c-.62,.05-1.03-.62-.7-1.15l1.39-2.18c.13-.21,.15-.47,.06-.69l-1.01-2.38c-.24-.57,.28-1.17,.88-1.02l2.5,.65c.24,.06,.49,0,.68-.16l1.95-1.7c.47-.41,1.2-.1,1.24,.52l.16,2.58c.02,.25,.15,.47,.36,.6l2.22,1.33c.53,.32,.47,1.11-.11,1.34l-2.41,.95c-.23,.09-.4,.29-.45,.53l-.58,2.52c-.14,.6-.91,.79-1.31,.31Z"/>
        </g>
        <g>
          <path class="cls-1" d="M181.95,152.03l-3.85-.45c-.37-.04-.73,.1-.97,.38l-2.55,2.92c-.61,.7-1.76,.39-1.94-.52l-.76-3.8c-.07-.36-.32-.67-.66-.81l-3.56-1.53c-.85-.37-.92-1.55-.11-2.01l3.38-1.9c.32-.18,.53-.51,.57-.88l.35-3.86c.08-.93,1.19-1.35,1.88-.72l2.85,2.63c.27,.25,.65,.35,1.01,.27l3.78-.86c.91-.21,1.66,.72,1.27,1.56l-1.62,3.52c-.15,.34-.13,.73,.06,1.04l1.99,3.33c.48,.8-.17,1.8-1.09,1.69Z"/>
          <path class="cls-1" d="M181.03,196.05l-2.02-1.62c-.19-.15-.45-.2-.68-.13l-2.48,.74c-.59,.18-1.13-.4-.91-.98l.92-2.42c.09-.23,.06-.49-.08-.69l-1.47-2.13c-.35-.51,.03-1.2,.65-1.17l2.58,.13c.25,.01,.48-.1,.63-.29l1.57-2.06c.38-.49,1.15-.34,1.32,.26l.68,2.5c.06,.24,.24,.43,.47,.51l2.44,.86c.59,.21,.68,.99,.16,1.33l-2.16,1.42c-.21,.13-.33,.36-.34,.61l-.06,2.59c-.01,.62-.73,.95-1.22,.57Z"/>
          <path class="cls-1" d="M141.48,167.57l-1.65-2c-.16-.19-.4-.29-.64-.27l-2.58,.22c-.62,.05-1.03-.62-.7-1.15l1.39-2.18c.13-.21,.15-.47,.06-.69l-1.01-2.38c-.24-.57,.28-1.17,.88-1.02l2.5,.65c.24,.06,.49,0,.68-.16l1.95-1.7c.47-.41,1.2-.1,1.24,.52l.16,2.58c.02,.25,.15,.47,.36,.6l2.22,1.33c.53,.32,.47,1.11-.11,1.34l-2.41,.95c-.23,.09-.4,.29-.45,.53l-.58,2.52c-.14,.6-.91,.79-1.31,.31Z"/>
        </g>
        <g>
          <path class="cls-1" d="M115.33,152.03l-3.85-.45c-.37-.04-.73,.1-.97,.38l-2.55,2.92c-.61,.7-1.76,.39-1.94-.52l-.76-3.8c-.07-.36-.32-.67-.66-.81l-3.56-1.53c-.85-.37-.92-1.55-.11-2.01l3.38-1.9c.32-.18,.53-.51,.57-.88l.35-3.86c.08-.93,1.19-1.35,1.88-.72l2.85,2.63c.27,.25,.65,.35,1.01,.27l3.78-.86c.91-.21,1.66,.72,1.27,1.56l-1.62,3.52c-.15,.34-.13,.73,.06,1.04l1.99,3.33c.48,.8-.17,1.8-1.09,1.69Z"/>
          <path class="cls-1" d="M114.41,196.05l-2.02-1.62c-.19-.15-.45-.2-.68-.13l-2.48,.74c-.59,.18-1.13-.4-.91-.98l.92-2.42c.09-.23,.06-.49-.08-.69l-1.47-2.13c-.35-.51,.03-1.2,.65-1.17l2.58,.13c.25,.01,.48-.1,.63-.29l1.57-2.06c.38-.49,1.15-.34,1.32,.26l.68,2.5c.06,.24,.24,.43,.47,.51l2.44,.86c.59,.21,.68,.99,.16,1.33l-2.16,1.42c-.21,.13-.33,.36-.34,.61l-.06,2.59c-.01,.62-.73,.95-1.22,.57Z"/>
          <path class="cls-1" d="M74.86,167.57l-1.65-2c-.16-.19-.4-.29-.64-.27l-2.58,.22c-.62,.05-1.03-.62-.7-1.15l1.39-2.18c.13-.21,.15-.47,.06-.69l-1.01-2.38c-.24-.57,.28-1.17,.88-1.02l2.5,.65c.24,.06,.49,0,.68-.16l1.95-1.7c.47-.41,1.2-.1,1.24,.52l.16,2.58c.02,.25,.15,.47,.36,.6l2.22,1.33c.53,.32,.47,1.11-.11,1.34l-2.41,.95c-.23,.09-.4,.29-.45,.53l-.58,2.52c-.14,.6-.91,.79-1.31,.31Z"/>
        </g>
        <g>
          <path class="cls-1" d="M48.71,152.03l-3.85-.45c-.37-.04-.73,.1-.97,.38l-2.55,2.92c-.61,.7-1.76,.39-1.94-.52l-.76-3.8c-.07-.36-.32-.67-.66-.81l-3.56-1.53c-.85-.37-.92-1.55-.11-2.01l3.38-1.9c.32-.18,.53-.51,.57-.88l.35-3.86c.08-.93,1.19-1.35,1.88-.72l2.85,2.63c.27,.25,.65,.35,1.01,.27l3.78-.86c.91-.21,1.66,.72,1.27,1.56l-1.62,3.52c-.15,.34-.13,.73,.06,1.04l1.99,3.33c.48,.8-.17,1.8-1.09,1.69Z"/>
          <path class="cls-1" d="M47.78,196.05l-2.02-1.62c-.19-.15-.45-.2-.68-.13l-2.48,.74c-.59,.18-1.13-.4-.91-.98l.92-2.42c.09-.23,.06-.49-.08-.69l-1.47-2.13c-.35-.51,.03-1.2,.65-1.17l2.58,.13c.25,.01,.48-.1,.63-.29l1.57-2.06c.38-.49,1.15-.34,1.32,.26l.68,2.5c.06,.24,.24,.43,.47,.51l2.44,.86c.59,.21,.68,.99,.16,1.33l-2.16,1.42c-.21,.13-.33,.36-.34,.61l-.06,2.59c-.01,.62-.73,.95-1.22,.57Z"/>
          <path class="cls-1" d="M8.24,167.57l-1.65-2c-.16-.19-.4-.29-.64-.27l-2.58,.22c-.62,.05-1.03-.62-.7-1.15l1.39-2.18c.13-.21,.15-.47,.06-.69l-1.01-2.38c-.24-.57,.28-1.17,.88-1.02l2.5,.65c.24,.06,.49,0,.68-.16l1.95-1.7c.47-.41,1.2-.1,1.24,.52l.16,2.58c.02,.25,.15,.47,.36,.6l2.22,1.33c.53,.32,.47,1.11-.11,1.34l-2.41,.95c-.23,.09-.4,.29-.45,.53l-.58,2.52c-.14,.6-.91,.79-1.31,.31Z"/>
        </g>
        <g>
          <path class="cls-1" d="M328.52,85.06l-3.85-.45c-.37-.04-.73,.1-.97,.38l-2.55,2.92c-.61,.7-1.76,.39-1.94-.52l-.76-3.8c-.07-.36-.32-.67-.66-.81l-3.56-1.53c-.85-.37-.92-1.55-.11-2.01l3.38-1.9c.32-.18,.53-.51,.57-.88l.35-3.86c.08-.93,1.19-1.35,1.88-.72l2.85,2.63c.27,.25,.65,.35,1.01,.27l3.78-.86c.91-.21,1.66,.72,1.27,1.56l-1.62,3.52c-.15,.34-.13,.73,.06,1.04l1.99,3.33c.48,.8-.17,1.8-1.09,1.69Z"/>
          <path class="cls-1" d="M327.59,129.08l-2.02-1.62c-.19-.15-.45-.2-.68-.13l-2.48,.74c-.59,.18-1.13-.4-.91-.98l.92-2.42c.09-.23,.06-.49-.08-.69l-1.47-2.13c-.35-.51,.03-1.2,.65-1.17l2.58,.13c.25,.01,.48-.1,.63-.29l1.57-2.06c.38-.49,1.15-.34,1.32,.26l.68,2.5c.06,.24,.24,.43,.47,.51l2.44,.86c.59,.21,.68,.99,.16,1.33l-2.16,1.42c-.21,.13-.33,.36-.34,.61l-.06,2.59c-.01,.62-.73,.95-1.22,.57Z"/>
          <path class="cls-1" d="M288.05,100.6l-1.65-2c-.16-.19-.4-.29-.64-.27l-2.58,.22c-.62,.05-1.03-.62-.7-1.15l1.39-2.18c.13-.21,.15-.47,.06-.69l-1.01-2.38c-.24-.57,.28-1.17,.88-1.02l2.5,.65c.24,.06,.49,0,.68-.16l1.95-1.7c.47-.41,1.2-.1,1.24,.52l.16,2.58c.02,.25,.15,.47,.36,.6l2.22,1.33c.53,.32,.47,1.11-.11,1.34l-2.41,.95c-.23,.09-.4,.29-.45,.53l-.58,2.52c-.14,.6-.91,.79-1.31,.31Z"/>
        </g>
        <g>
          <path class="cls-1" d="M261.9,85.06l-3.85-.45c-.37-.04-.73,.1-.97,.38l-2.55,2.92c-.61,.7-1.76,.39-1.94-.52l-.76-3.8c-.07-.36-.32-.67-.66-.81l-3.56-1.53c-.85-.37-.92-1.55-.11-2.01l3.38-1.9c.32-.18,.53-.51,.57-.88l.35-3.86c.08-.93,1.19-1.35,1.88-.72l2.85,2.63c.27,.25,.65,.35,1.01,.27l3.78-.86c.91-.21,1.66,.72,1.27,1.56l-1.62,3.52c-.15,.34-.13,.73,.06,1.04l1.99,3.33c.48,.8-.17,1.8-1.09,1.69Z"/>
          <path class="cls-1" d="M260.97,129.08l-2.02-1.62c-.19-.15-.45-.2-.68-.13l-2.48,.74c-.59,.18-1.13-.4-.91-.98l.92-2.42c.09-.23,.06-.49-.08-.69l-1.47-2.13c-.35-.51,.03-1.2,.65-1.17l2.58,.13c.25,.01,.48-.1,.63-.29l1.57-2.06c.38-.49,1.15-.34,1.32,.26l.68,2.5c.06,.24,.24,.43,.47,.51l2.44,.86c.59,.21,.68,.99,.16,1.33l-2.16,1.42c-.21,.13-.33,.36-.34,.61l-.06,2.59c-.01,.62-.73,.95-1.22,.57Z"/>
          <path class="cls-1" d="M221.43,100.6l-1.65-2c-.16-.19-.4-.29-.64-.27l-2.58,.22c-.62,.05-1.03-.62-.7-1.15l1.39-2.18c.13-.21,.15-.47,.06-.69l-1.01-2.38c-.24-.57,.28-1.17,.88-1.02l2.5,.65c.24,.06,.49,0,.68-.16l1.95-1.7c.47-.41,1.2-.1,1.24,.52l.16,2.58c.02,.25,.15,.47,.36,.6l2.22,1.33c.53,.32,.47,1.11-.11,1.34l-2.41,.95c-.23,.09-.4,.29-.45,.53l-.58,2.52c-.14,.6-.91,.79-1.31,.31Z"/>
        </g>
        <g>
          <path class="cls-1" d="M195.28,85.06l-3.85-.45c-.37-.04-.73,.1-.97,.38l-2.55,2.92c-.61,.7-1.76,.39-1.94-.52l-.76-3.8c-.07-.36-.32-.67-.66-.81l-3.56-1.53c-.85-.37-.92-1.55-.11-2.01l3.38-1.9c.32-.18,.53-.51,.57-.88l.35-3.86c.08-.93,1.19-1.35,1.88-.72l2.85,2.63c.27,.25,.65,.35,1.01,.27l3.78-.86c.91-.21,1.66,.72,1.27,1.56l-1.62,3.52c-.15,.34-.13,.73,.06,1.04l1.99,3.33c.48,.8-.17,1.8-1.09,1.69Z"/>
          <path class="cls-1" d="M194.35,129.08l-2.02-1.62c-.19-.15-.45-.2-.68-.13l-2.48,.74c-.59,.18-1.13-.4-.91-.98l.92-2.42c.09-.23,.06-.49-.08-.69l-1.47-2.13c-.35-.51,.03-1.2,.65-1.17l2.58,.13c.25,.01,.48-.1,.63-.29l1.57-2.06c.38-.49,1.15-.34,1.32,.26l.68,2.5c.06,.24,.24,.43,.47,.51l2.44,.86c.59,.21,.68,.99,.16,1.33l-2.16,1.42c-.21,.13-.33,.36-.34,.61l-.06,2.59c-.01,.62-.73,.95-1.22,.57Z"/>
          <path class="cls-1" d="M154.8,100.6l-1.65-2c-.16-.19-.4-.29-.64-.27l-2.58,.22c-.62,.05-1.03-.62-.7-1.15l1.39-2.18c.13-.21,.15-.47,.06-.69l-1.01-2.38c-.24-.57,.28-1.17,.88-1.02l2.5,.65c.24,.06,.49,0,.68-.16l1.95-1.7c.47-.41,1.2-.1,1.24,.52l.16,2.58c.02,.25,.15,.47,.36,.6l2.22,1.33c.53,.32,.47,1.11-.11,1.34l-2.41,.95c-.23,.09-.4,.29-.45,.53l-.58,2.52c-.14,.6-.91,.79-1.31,.31Z"/>
        </g>
        <g>
          <path class="cls-1" d="M128.66,85.06l-3.85-.45c-.37-.04-.73,.1-.97,.38l-2.55,2.92c-.61,.7-1.76,.39-1.94-.52l-.76-3.8c-.07-.36-.32-.67-.66-.81l-3.56-1.53c-.85-.37-.92-1.55-.11-2.01l3.38-1.9c.32-.18,.53-.51,.57-.88l.35-3.86c.08-.93,1.19-1.35,1.88-.72l2.85,2.63c.27,.25,.65,.35,1.01,.27l3.78-.86c.91-.21,1.66,.72,1.27,1.56l-1.62,3.52c-.15,.34-.13,.73,.06,1.04l1.99,3.33c.48,.8-.17,1.8-1.09,1.69Z"/>
          <path class="cls-1" d="M127.73,129.08l-2.02-1.62c-.19-.15-.45-.2-.68-.13l-2.48,.74c-.59,.18-1.13-.4-.91-.98l.92-2.42c.09-.23,.06-.49-.08-.69l-1.47-2.13c-.35-.51,.03-1.2,.65-1.17l2.58,.13c.25,.01,.48-.1,.63-.29l1.57-2.06c.38-.49,1.15-.34,1.32,.26l.68,2.5c.06,.24,.24,.43,.47,.51l2.44,.86c.59,.21,.68,.99,.16,1.33l-2.16,1.42c-.21,.13-.33,.36-.34,.61l-.06,2.59c-.01,.62-.73,.95-1.22,.57Z"/>
          <path class="cls-1" d="M88.18,100.6l-1.65-2c-.16-.19-.4-.29-.64-.27l-2.58,.22c-.62,.05-1.03-.62-.7-1.15l1.39-2.18c.13-.21,.15-.47,.06-.69l-1.01-2.38c-.24-.57,.28-1.17,.88-1.02l2.5,.65c.24,.06,.49,0,.68-.16l1.95-1.7c.47-.41,1.2-.1,1.24,.52l.16,2.58c.02,.25,.15,.47,.36,.6l2.22,1.33c.53,.32,.47,1.11-.11,1.34l-2.41,.95c-.23,.09-.4,.29-.45,.53l-.58,2.52c-.14,.6-.91,.79-1.31,.31Z"/>
        </g>
        <g>
          <path class="cls-1" d="M62.04,85.06l-3.85-.45c-.37-.04-.73,.1-.97,.38l-2.55,2.92c-.61,.7-1.76,.39-1.94-.52l-.76-3.8c-.07-.36-.32-.67-.66-.81l-3.56-1.53c-.85-.37-.92-1.55-.11-2.01l3.38-1.9c.32-.18,.53-.51,.57-.88l.35-3.86c.08-.93,1.19-1.35,1.88-.72l2.85,2.63c.27,.25,.65,.35,1.01,.27l3.78-.86c.91-.21,1.66,.72,1.27,1.56l-1.62,3.52c-.15,.34-.13,.73,.06,1.04l1.99,3.33c.48,.8-.17,1.8-1.09,1.69Z"/>
          <path class="cls-1" d="M61.11,129.08l-2.02-1.62c-.19-.15-.45-.2-.68-.13l-2.48,.74c-.59,.18-1.13-.4-.91-.98l.92-2.42c.09-.23,.06-.49-.08-.69l-1.47-2.13c-.35-.51,.03-1.2,.65-1.17l2.58,.13c.25,.01,.48-.1,.63-.29l1.57-2.06c.38-.49,1.15-.34,1.32,.26l.68,2.5c.06,.24,.24,.43,.47,.51l2.44,.86c.59,.21,.68,.99,.16,1.33l-2.16,1.42c-.21,.13-.33,.36-.34,.61l-.06,2.59c-.01,.62-.73,.95-1.22,.57Z"/>
          <path class="cls-1" d="M21.56,100.6l-1.65-2c-.16-.19-.4-.29-.64-.27l-2.58,.22c-.62,.05-1.03-.62-.7-1.15l1.39-2.18c.13-.21,.15-.47,.06-.69l-1.01-2.38c-.24-.57,.28-1.17,.88-1.02l2.5,.65c.24,.06,.49,0,.68-.16l1.95-1.7c.47-.41,1.2-.1,1.24,.52l.16,2.58c.02,.25,.15,.47,.36,.6l2.22,1.33c.53,.32,.47,1.11-.11,1.34l-2.41,.95c-.23,.09-.4,.29-.45,.53l-.58,2.52c-.14,.6-.91,.79-1.31,.31Z"/>
        </g>
        <g>
          <path class="cls-1" d="M341.84,18.08l-3.85-.45c-.37-.04-.73,.1-.97,.38l-2.55,2.92c-.61,.7-1.76,.39-1.94-.52l-.76-3.8c-.07-.36-.32-.67-.66-.81l-3.56-1.53c-.85-.37-.92-1.55-.11-2.01l3.38-1.9c.32-.18,.53-.51,.57-.88l.35-3.86c.08-.93,1.19-1.35,1.88-.72l2.85,2.63c.27,.25,.65,.35,1.01,.27l3.78-.86c.91-.21,1.66,.72,1.27,1.56l-1.62,3.52c-.15,.34-.13,.73,.06,1.04l1.99,3.33c.48,.8-.17,1.8-1.09,1.69Z"/>
          <path class="cls-1" d="M301.37,33.63l-1.65-2c-.16-.19-.4-.29-.64-.27l-2.58,.22c-.62,.05-1.03-.62-.7-1.15l1.39-2.18c.13-.21,.15-.47,.06-.69l-1.01-2.38c-.24-.57,.28-1.17,.88-1.02l2.5,.65c.24,.06,.49,0,.68-.16l1.95-1.7c.47-.41,1.2-.1,1.24,.52l.16,2.58c.02,.25,.15,.47,.36,.6l2.22,1.33c.53,.32,.47,1.11-.11,1.34l-2.41,.95c-.23,.09-.4,.29-.45,.53l-.58,2.52c-.14,.6-.91,.79-1.31,.31Z"/>
        </g>
        <g>
          <path class="cls-1" d="M275.22,18.08l-3.85-.45c-.37-.04-.73,.1-.97,.38l-2.55,2.92c-.61,.7-1.76,.39-1.94-.52l-.76-3.8c-.07-.36-.32-.67-.66-.81l-3.56-1.53c-.85-.37-.92-1.55-.11-2.01l3.38-1.9c.32-.18,.53-.51,.57-.88l.35-3.86c.08-.93,1.19-1.35,1.88-.72l2.85,2.63c.27,.25,.65,.35,1.01,.27l3.78-.86c.91-.21,1.66,.72,1.27,1.56l-1.62,3.52c-.15,.34-.13,.73,.06,1.04l1.99,3.33c.48,.8-.17,1.8-1.09,1.69Z"/>
          <path class="cls-1" d="M274.29,62.11l-2.02-1.62c-.19-.15-.45-.2-.68-.13l-2.48,.74c-.59,.18-1.13-.4-.91-.98l.92-2.42c.09-.23,.06-.49-.08-.69l-1.47-2.13c-.35-.51,.03-1.2,.65-1.17l2.58,.13c.25,.01,.48-.1,.63-.29l1.57-2.06c.38-.49,1.15-.34,1.32,.26l.68,2.5c.06,.24,.24,.43,.47,.51l2.44,.86c.59,.21,.68,.99,.16,1.33l-2.16,1.42c-.21,.13-.33,.36-.34,.61l-.06,2.59c-.01,.62-.73,.95-1.22,.57Z"/>
          <path class="cls-1" d="M234.75,33.63l-1.65-2c-.16-.19-.4-.29-.64-.27l-2.58,.22c-.62,.05-1.03-.62-.7-1.15l1.39-2.18c.13-.21,.15-.47,.06-.69l-1.01-2.38c-.24-.57,.28-1.17,.88-1.02l2.5,.65c.24,.06,.49,0,.68-.16l1.95-1.7c.47-.41,1.2-.1,1.24,.52l.16,2.58c.02,.25,.15,.47,.36,.6l2.22,1.33c.53,.32,.47,1.11-.11,1.34l-2.41,.95c-.23,.09-.4,.29-.45,.53l-.58,2.52c-.14,.6-.91,.79-1.31,.31Z"/>
        </g>
        <g>
          <path class="cls-1" d="M208.6,18.08l-3.85-.45c-.37-.04-.73,.1-.97,.38l-2.55,2.92c-.61,.7-1.76,.39-1.94-.52l-.76-3.8c-.07-.36-.32-.67-.66-.81l-3.56-1.53c-.85-.37-.92-1.55-.11-2.01l3.38-1.9c.32-.18,.53-.51,.57-.88l.35-3.86c.08-.93,1.19-1.35,1.88-.72l2.85,2.63c.27,.25,.65,.35,1.01,.27l3.78-.86c.91-.21,1.66,.72,1.27,1.56l-1.62,3.52c-.15,.34-.13,.73,.06,1.04l1.99,3.33c.48,.8-.17,1.8-1.09,1.69Z"/>
          <path class="cls-1" d="M207.67,62.11l-2.02-1.62c-.19-.15-.45-.2-.68-.13l-2.48,.74c-.59,.18-1.13-.4-.91-.98l.92-2.42c.09-.23,.06-.49-.08-.69l-1.47-2.13c-.35-.51,.03-1.2,.65-1.17l2.58,.13c.25,.01,.48-.1,.63-.29l1.57-2.06c.38-.49,1.15-.34,1.32,.26l.68,2.5c.06,.24,.24,.43,.47,.51l2.44,.86c.59,.21,.68,.99,.16,1.33l-2.16,1.42c-.21,.13-.33,.36-.34,.61l-.06,2.59c-.01,.62-.73,.95-1.22,.57Z"/>
          <path class="cls-1" d="M168.13,33.63l-1.65-2c-.16-.19-.4-.29-.64-.27l-2.58,.22c-.62,.05-1.03-.62-.7-1.15l1.39-2.18c.13-.21,.15-.47,.06-.69l-1.01-2.38c-.24-.57,.28-1.17,.88-1.02l2.5,.65c.24,.06,.49,0,.68-.16l1.95-1.7c.47-.41,1.2-.1,1.24,.52l.16,2.58c.02,.25,.15,.47,.36,.6l2.22,1.33c.53,.32,.47,1.11-.11,1.34l-2.41,.95c-.23,.09-.4,.29-.45,.53l-.58,2.52c-.14,.6-.91,.79-1.31,.31Z"/>
        </g>
        <g>
          <path class="cls-1" d="M141.98,18.08l-3.85-.45c-.37-.04-.73,.1-.97,.38l-2.55,2.92c-.61,.7-1.76,.39-1.94-.52l-.76-3.8c-.07-.36-.32-.67-.66-.81l-3.56-1.53c-.85-.37-.92-1.55-.11-2.01l3.38-1.9c.32-.18,.53-.51,.57-.88l.35-3.86c.08-.93,1.19-1.35,1.88-.72l2.85,2.63c.27,.25,.65,.35,1.01,.27l3.78-.86c.91-.21,1.66,.72,1.27,1.56l-1.62,3.52c-.15,.34-.13,.73,.06,1.04l1.99,3.33c.48,.8-.17,1.8-1.09,1.69Z"/>
          <path class="cls-1" d="M141.05,62.11l-2.02-1.62c-.19-.15-.45-.2-.68-.13l-2.48,.74c-.59,.18-1.13-.4-.91-.98l.92-2.42c.09-.23,.06-.49-.08-.69l-1.47-2.13c-.35-.51,.03-1.2,.65-1.17l2.58,.13c.25,.01,.48-.1,.63-.29l1.57-2.06c.38-.49,1.15-.34,1.32,.26l.68,2.5c.06,.24,.24,.43,.47,.51l2.44,.86c.59,.21,.68,.99,.16,1.33l-2.16,1.42c-.21,.13-.33,.36-.34,.61l-.06,2.59c-.01,.62-.73,.95-1.22,.57Z"/>
          <path class="cls-1" d="M101.51,33.63l-1.65-2c-.16-.19-.4-.29-.64-.27l-2.58,.22c-.62,.05-1.03-.62-.7-1.15l1.39-2.18c.13-.21,.15-.47,.06-.69l-1.01-2.38c-.24-.57,.28-1.17,.88-1.02l2.5,.65c.24,.06,.49,0,.68-.16l1.95-1.7c.47-.41,1.2-.1,1.24,.52l.16,2.58c.02,.25,.15,.47,.36,.6l2.22,1.33c.53,.32,.47,1.11-.11,1.34l-2.41,.95c-.23,.09-.4,.29-.45,.53l-.58,2.52c-.14,.6-.91,.79-1.31,.31Z"/>
        </g>
        <g>
          <path class="cls-1" d="M75.36,18.08l-3.85-.45c-.37-.04-.73,.1-.97,.38l-2.55,2.92c-.61,.7-1.76,.39-1.94-.52l-.76-3.8c-.07-.36-.32-.67-.66-.81l-3.56-1.53c-.85-.37-.92-1.55-.11-2.01l3.38-1.9c.32-.18,.53-.51,.57-.88l.35-3.86c.08-.93,1.19-1.35,1.88-.72l2.85,2.63c.27,.25,.65,.35,1.01,.27l3.78-.86c.91-.21,1.66,.72,1.27,1.56l-1.62,3.52c-.15,.34-.13,.73,.06,1.04l1.99,3.33c.48,.8-.17,1.8-1.09,1.69Z"/>
          <path class="cls-1" d="M74.43,62.11l-2.02-1.62c-.19-.15-.45-.2-.68-.13l-2.48,.74c-.59,.18-1.13-.4-.91-.98l.92-2.42c.09-.23,.06-.49-.08-.69l-1.47-2.13c-.35-.51,.03-1.2,.65-1.17l2.58,.13c.25,.01,.48-.1,.63-.29l1.57-2.06c.38-.49,1.15-.34,1.32,.26l.68,2.5c.06,.24,.24,.43,.47,.51l2.44,.86c.59,.21,.68,.99,.16,1.33l-2.16,1.42c-.21,.13-.33,.36-.34,.61l-.06,2.59c-.01,.62-.73,.95-1.22,.57Z"/>
          <path class="cls-1" d="M34.89,33.63l-1.65-2c-.16-.19-.4-.29-.64-.27l-2.58,.22c-.62,.05-1.03-.62-.7-1.15l1.39-2.18c.13-.21,.15-.47,.06-.69l-1.01-2.38c-.24-.57,.28-1.17,.88-1.02l2.5,.65c.24,.06,.49,0,.68-.16l1.95-1.7c.47-.41,1.2-.1,1.24,.52l.16,2.58c.02,.25,.15,.47,.36,.6l2.22,1.33c.53,.32,.47,1.11-.11,1.34l-2.41,.95c-.23,.09-.4,.29-.45,.53l-.58,2.52c-.14,.6-.91,.79-1.31,.31Z"/>
        </g>
        <g>
          <path class="cls-1" d="M8.74,18.08l-3.85-.45c-.37-.04-.73,.1-.97,.38l-2.55,2.92c-.61,.7-1.76,.39-1.94-.52l-.76-3.8c-.07-.36-.32-.67-.66-.81l-3.56-1.53c-.85-.37-.92-1.55-.11-2.01l3.38-1.9c.32-.18,.53-.51,.57-.88l.35-3.86c.08-.93,1.19-1.35,1.88-.72l2.85,2.63c.27,.25,.65,.35,1.01,.27l3.78-.86c.91-.21,1.66,.72,1.27,1.56l-1.62,3.52c-.15,.34-.13,.73,.06,1.04l1.99,3.33c.48,.8-.17,1.8-1.09,1.69Z"/>
          <path class="cls-1" d="M7.81,62.11l-2.02-1.62c-.19-.15-.45-.2-.68-.13l-2.48,.74c-.59,.18-1.13-.4-.91-.98l.92-2.42c.09-.23,.06-.49-.08-.69l-1.47-2.13c-.35-.51,.03-1.2,.65-1.17l2.58,.13c.25,.01,.48-.1,.63-.29l1.57-2.06c.38-.49,1.15-.34,1.32,.26l.68,2.5c.06,.24,.24,.43,.47,.51l2.44,.86c.59,.21,.68,.99,.16,1.33l-2.16,1.42c-.21,.13-.33,.36-.34,.61l-.06,2.59c-.01,.62-.73,.95-1.22,.57Z"/>
        </g>
      </g>
    </pattern>
  </defs>
  <g id="Capa_8" data-name="Capa 8">
    <rect class="cls-2" width="851.13" height="595.28"/>
  </g>
</svg>